<svg width="256" height="256" viewBox="0 0 256 256" fill="none" xmlns="http://www.w3.org/2000/svg">
<g clip-path="url(#clip0_29_2)">
<mask id="mask0_29_2" style="mask-type:luminance" maskUnits="userSpaceOnUse" x="0" y="0" width="256" height="256">
<path d="M256 0H0V256H256V0Z" fill="white"/>
</mask>
<g mask="url(#mask0_29_2)">
<path d="M128 0C198.693 0 256 57.3075 256 128C256 198.693 198.693 256 128 256C57.3075 256 0 198.693 0 128C0 57.3075 57.3075 0 128 0Z" fill="black"/>
<path d="M125.129 190.63C121.846 189.745 118.469 191.645 117.508 194.885L117.466 195.036L108.966 226.536L108.927 226.688C108.127 229.972 110.089 233.313 113.372 234.198C116.654 235.085 120.031 233.184 120.992 229.943L121.034 229.793L129.533 198.293L129.573 198.141C129.631 197.904 129.674 197.666 129.704 197.429L129.729 197.192L129.527 196.171L129.233 194.702L129.047 193.784C128.649 193.015 128.095 192.338 127.42 191.794C126.746 191.252 125.965 190.855 125.129 190.63ZM65.8978 158.19C65.7429 158.499 65.6114 158.825 65.5068 159.165L65.4479 159.371L56.9479 190.871L56.9088 191.024C56.1088 194.307 58.0714 197.648 61.3538 198.534C64.6358 199.42 68.0129 197.52 68.9738 194.279L69.0158 194.128L76.7229 165.566C72.6863 163.429 69.0634 160.963 65.8978 158.19ZM45.6283 121.966C42.3458 121.08 38.9688 122.98 38.0083 126.221L37.9658 126.372L29.4659 157.872L29.4269 158.024C28.6269 161.307 30.5894 164.648 33.8719 165.534C37.1539 166.42 40.5309 164.52 41.4918 161.279L41.5339 161.128L50.0338 129.628L50.0728 129.476C50.8728 126.193 48.9109 122.852 45.6283 121.966ZM236.22 114.813C232.937 113.927 229.559 115.826 228.599 119.067L228.557 119.218L220.057 150.718L220.018 150.87C219.218 154.154 221.181 157.495 224.463 158.38C227.745 159.266 231.122 157.367 232.083 154.126L232.125 153.975L240.625 122.475L240.664 122.323C241.464 119.039 239.502 115.698 236.22 114.813ZM27.1173 72.7489C19.9988 85.7122 15.4661 99.9355 13.7708 114.627C14.5818 115.552 15.6485 116.215 16.8364 116.534C20.1189 117.42 23.4959 115.52 24.4564 112.279L24.4989 112.129L32.9988 80.6285L33.0378 80.4765C33.8378 77.1924 31.8753 73.8514 28.5928 72.9659C28.1114 72.836 27.6158 72.7632 27.1173 72.7489ZM214.69 72.9659C211.408 72.0799 208.031 73.98 207.07 77.2209L207.028 77.3714L198.528 108.872L198.489 109.024C197.689 112.307 199.651 115.649 202.934 116.534C206.216 117.42 209.593 115.52 210.554 112.279L210.596 112.129L219.096 80.6285L219.135 80.4765C219.935 77.1924 217.972 73.8514 214.69 72.9659Z" fill="white"/>
<path d="M64.1096 43.0135C60.8276 42.1275 57.4506 44.0275 56.4896 47.2686L56.4476 47.419L47.9476 78.9191L47.9086 79.071C47.1086 82.355 49.0711 85.696 52.3536 86.5817C55.6356 87.4675 59.0126 85.5671 59.9736 82.3265L60.0156 82.1761L68.5156 50.676L68.5546 50.5241C69.3546 47.2401 67.3921 43.899 64.1096 43.0135ZM173.326 48.9681C170.043 48.0821 166.666 49.982 165.705 53.2231L165.663 53.3735L159.951 74.5386C163.651 76.3661 167.182 78.5174 170.504 80.9676L171.053 81.3775L177.731 56.6305L177.77 56.4785C178.57 53.1946 176.608 49.8535 173.326 48.9681ZM117.733 13.4521C113.746 13.8044 109.779 14.3648 105.85 15.131L105.016 15.2971L97.094 44.6651L97.0547 44.817C96.2551 48.101 98.2178 51.4421 101.5 52.3276C104.782 53.2135 108.159 51.3136 109.12 48.0725L109.162 47.9221L117.662 16.422L117.701 16.2701C117.927 15.3455 117.938 14.3815 117.733 13.4521ZM195.948 35.2111L194.278 41.4011L194.238 41.5525C193.439 44.8366 195.401 48.1776 198.683 49.0631C201.965 49.9491 205.343 48.049 206.304 44.8081L206.345 44.6576L206.528 43.9861C203.402 41.0628 200.116 38.3154 196.686 35.7565L195.948 35.2111ZM146.493 14.4791L143.479 25.6506L143.44 25.8026C142.64 29.0865 144.602 32.4276 147.885 33.3131C151.167 34.199 154.544 32.2991 155.505 29.058L155.547 28.9076L158.72 17.1491C154.986 16.1166 151.202 15.2747 147.383 14.6265L146.493 14.4791Z" fill="white"/>
<path d="M82.6953 210.136C83.6558 206.895 87.0332 204.995 90.3151 205.88C93.5979 206.765 95.5597 210.107 94.7601 213.391L94.7208 213.543L88.6374 236.087L87.7875 235.773C84.1247 234.406 80.5346 232.852 77.0312 231.116L82.6528 210.286L82.6953 210.136Z" fill="white"/>
<path d="M123 72.455C85.7788 72.455 56.825 95.8874 56.825 125.028C56.825 152.55 83.4665 170.122 124.767 169.242C128.279 169.167 129.295 171.527 130.437 174.706C131.581 177.886 134.653 194.643 137.101 207.46C139.292 218.931 141.519 230.444 143.218 242.002C170.188 238.437 195.126 225.115 213.398 205.023L193.909 132.342C189.051 114.789 183.373 98.6146 168.348 86.8642C156.261 77.4115 140.904 72.455 123 72.455Z" fill="white"/>
<path d="M131 93.4997C135.419 93.4997 139 97.0812 139 101.5C139 105.918 135.419 109.5 131 109.5C126.582 109.5 123 105.918 123 101.5C123 97.0812 126.582 93.4997 131 93.4997Z" fill="black"/>
</g>
</g>
<defs>
<clipPath id="clip0_29_2">
<rect width="256" height="256" fill="white"/>
</clipPath>
</defs>
</svg>
