<svg viewBox="0 0 256 256" fill="none" xmlns="http://www.w3.org/2000/svg">
<path d="M155.276 133.955L139.141 138.206L144.357 124.695L159.925 120.594L160.133 121.373L155.276 133.955ZM134.254 138.468L118.119 142.72L123.335 129.21L138.903 125.107L139.111 125.887L134.254 138.468ZM128.881 111.54L144.449 107.439L144.657 108.217L139.8 120.801L123.665 125.051L128.881 111.54ZM247.947 68.877L256.004 48.0065L255.657 46.7135L175.941 67.7185C184.437 55.4207 181.517 45.5593 181.517 45.5593C181.517 45.5593 156.059 61.8175 136.806 61.3901C117.553 60.9627 111.349 55.8286 81.8267 65.241C52.3043 74.6533 43.9615 103.535 35.405 109.737C26.8486 115.942 0 136.157 0 136.157L0.0596862 136.519L24.2636 128.811C24.2636 128.811 17.6261 135.068 3.52327 154.075C3.52327 154.075 3.27811 153.849 2.86699 153.462L2.88871 153.592C2.88871 153.592 14.2265 170.92 25.3505 167.711C26.4646 167.39 27.725 166.853 29.1059 166.154C33.5848 168.648 39.4327 171.101 45.8869 171.776C45.8869 171.776 41.5154 166.699 37.8728 160.918C38.8578 160.281 39.8666 159.624 40.896 158.953L40.4231 159.289L49.6434 162.674L48.6237 154.011L48.7159 153.955L57.7736 157.279L56.6454 149.401C57.7777 148.807 58.9243 148.241 60.0841 147.703L69.5268 111.984L108.568 85.3511L105.466 93.1591C97.5512 112.626 82.6826 117.225 82.6826 117.225L76.4779 119.579C71.8633 125.033 69.9227 126.375 68.3357 144.683C72.0564 143.746 75.6122 143.526 78.8317 144.393C95.5184 148.886 101.295 168.995 96.8027 174.557C95.6789 175.948 93.0018 178.33 89.6195 181.12H82.8496L82.7618 186.606C82.5296 186.787 82.2986 186.968 82.0654 187.148H75.1772L75.0915 192.502L73.2876 193.866C66.8117 194 58.6164 188.355 58.6164 188.355C58.6164 193.489 62.8958 201.405 62.8958 201.405C62.8958 201.405 63.1756 201.27 63.6518 201.036L63.0021 201.512C63.0021 201.512 80.3309 213.065 91.2412 208.785C100.944 204.98 126.056 185.176 147.736 175.807L213.34 158.521L221.992 136.11L171.998 149.282V129.152L230.643 113.7L239.296 91.289L171.998 109.019V88.8862L247.947 68.877Z" fill="currentColor"/>
</svg>
